<svg width="32" height="22" fill="none" xmlns="http://www.w3.org/2000/svg"><path d="M.613.079A1.233 1.233 0 0 0 .2.377L0 .6V2.307l.228.228c.437.437-1.059.401 16.014.385l15.198-.013.28-.155.28-.156V.276l-.277-.138L31.446 0l-15.31.002C3.141.004.794.016.613.079m.121 9.254c-.247.075-.51.264-.625.449-.097.158-.109.264-.109.971 0 .69.014.816.104.963.149.244.505.432.938.495.51.074 29.618.074 30.127 0 .203-.029.467-.107.587-.173l.217-.12V9.575l-.24-.134-.24-.134-15.306-.009C7.768 9.293.814 9.309.734 9.333m.104 9.285a1.16 1.16 0 0 0-.67.394L0 19.204v1.717l.228.228c.437.436-1.059.4 16.014.385 14.295-.013 15.209-.019 15.385-.106.394-.196.373-.117.373-1.39v-1.15l-.307-.151-.306-.15-15.174-.008c-8.764-.005-15.258.011-15.375.039" fill-rule="evenodd" fill="#000"/></svg>